<svg width="420" height="600" viewBox="0 0 420 600" fill="none" xmlns="http://www.w3.org/2000/svg">
<g opacity="0.3">
<path d="M3.95224 0.336805C1.65544 0.946486 0.483594 1.74376 0.155479 2.96312C-0.500752 5.54254 0.624216 6.57431 9.34271 11.358C24.9985 19.9873 34.6545 28.9449 39.0606 38.9812C39.67 40.3413 43.1386 51.6438 46.7479 64.1657C58.4194 104.311 73.1846 152.804 73.4659 151.913C73.6533 151.35 64.1849 112.987 58.3257 90.6165C47.7791 50.0962 44.9667 40.0599 43.0917 36.1673C37.9825 25.2868 29.1703 16.7513 14.6394 8.54405C7.46777 4.41698 7.42089 4.13559 14.4051 5.07356C27.8578 6.8557 53.4039 16.0478 95.0746 34.1507C102.715 37.4336 111.762 41.4199 115.23 43.0145C118.699 44.5621 121.605 45.7815 121.699 45.6877C121.839 45.547 113.543 41.1386 100.746 34.5259C71.6378 19.5652 39.8575 6.24602 21.7642 1.55617C16.7956 0.243007 6.85841 -0.460471 3.95224 0.336805Z" fill="#0B7560"/>
<path d="M84.8093 36.9176C84.8093 37.1521 88.5592 40.0129 93.1528 43.3427C126.996 67.7768 158.354 93.6179 178.791 114.113C193.322 128.651 199.369 136.202 207.384 149.615C213.946 160.683 218.868 167.905 231.758 185.633C250.18 210.958 256.695 221.088 263.351 234.97C269.07 246.835 272.398 255.84 275.351 267.705C277.132 274.787 279.335 285.855 279.335 287.637C279.335 288.294 279.569 288.81 279.851 288.81C280.226 288.81 280.319 287.356 280.085 283.51C278.585 259.967 271.929 237.596 260.023 216.586C254.258 206.409 247.977 197.217 234.243 179.02C220.274 160.448 217.04 155.946 211.837 147.411C209.915 144.315 207.29 140.282 206.025 138.5C190.463 116.27 151.839 82.7375 102.621 48.6422C89.028 39.1687 84.8093 36.4017 84.8093 36.9176Z" fill="#0B7560"/>
<path d="M146.917 134.701L145.604 135.78L154.276 148.396C204.712 221.839 249.148 292.749 266.398 327.173C276.241 346.823 288.1 375.244 303.662 416.608C307.553 426.926 310.975 435.837 311.209 436.4C311.49 437.15 311.49 437.478 311.162 437.478C308.35 437.478 295.553 438.651 290.491 439.401C276.663 441.371 268.367 444.56 266.445 448.546C265.414 450.797 265.882 452.533 268.085 454.549C270.523 456.754 272.538 457.738 278.163 459.474C287.257 462.241 297.991 463.835 313.506 464.679C318.24 464.914 322.177 465.195 322.224 465.242C322.271 465.336 323.396 468.009 324.709 471.245C328.74 481.328 332.771 489.817 335.255 493.616C337.365 496.758 338.068 497.461 340.458 498.681C347.489 502.245 350.583 499.478 349.927 490.239C349.458 483.767 348.427 479.64 345.38 471.902C343.88 468.009 342.614 464.726 342.614 464.586C342.614 464.398 344.255 464.163 346.271 463.976C351.567 463.507 360.005 462.006 365.067 460.693C372.989 458.583 377.863 455.487 378.52 452.204L378.801 450.751L376.082 450.469C373.598 450.235 373.176 450.328 372.145 451.266C370.364 452.955 367.551 454.221 362.161 455.722C357.145 457.129 347.114 458.911 342.708 459.145L340.177 459.286L336.005 449.906C333.662 444.747 331.646 440.245 331.505 439.917C330.755 438.229 354.286 440.433 363.239 442.918C367.457 444.091 367.786 444.138 366.989 443.669C364.083 441.84 347.63 438.932 335.958 438.135C333.193 437.947 330.708 437.572 330.521 437.291C330.287 437.009 327.709 431.616 324.802 425.285C317.443 409.339 304.037 380.965 299.866 372.524C296.819 366.38 227.305 236.377 225.571 233.563C224.962 232.578 224.868 232.578 223.555 233.235C222.758 233.657 222.149 234.032 222.149 234.126C222.149 234.22 238.086 264.047 257.586 300.347C277.085 336.693 294.241 368.866 295.741 371.867C299.163 378.667 314.068 410.089 320.818 424.816C323.631 430.866 326.209 436.165 326.537 436.587C326.865 436.962 327.38 438.041 327.662 438.932C327.943 439.823 330.099 444.794 332.396 450.047C334.74 455.3 336.521 459.661 336.474 459.755C336.38 459.802 333.521 460.036 330.146 460.224L324.006 460.552L320.396 451.032C318.381 445.826 316.365 440.808 315.85 439.87C315.381 438.932 314.959 437.853 314.959 437.384C314.959 436.962 314.771 436.118 314.49 435.508C314.256 434.899 310.834 425.988 306.944 415.67C285.991 360.096 274.788 334.489 259.32 306.725C243.664 278.539 215.727 233.892 183.572 185.633C174.901 172.642 151.979 138.828 149.495 135.358L148.229 133.669L146.917 134.701ZM316.225 449.672C318.381 455.206 320.115 459.943 320.115 460.177C320.115 460.787 302.912 460.177 295.741 459.333C279.804 457.41 269.023 453.799 269.023 450.422C269.023 446.623 283.179 442.121 300.662 440.292C303.241 440.058 306.1 439.729 306.99 439.636C307.881 439.542 309.475 439.495 310.506 439.542L312.381 439.589L316.225 449.672ZM340.693 469.369C344.536 478.608 345.427 481.516 346.177 487.331C346.927 493.287 346.786 495.961 345.614 496.43C345.192 496.57 344.067 496.477 343.083 496.148C339.38 495.07 336.474 490.239 329.49 473.825L325.88 465.383L327.802 465.101C328.834 464.961 331.74 464.773 334.224 464.773L338.771 464.679L340.693 469.369Z" fill="#0B7560"/>
<path d="M77.3567 154.398C77.4504 154.492 81.4815 156.087 86.3095 157.916C110.731 167.155 125.121 173.674 130.511 177.941L133.277 180.193L131.683 180.849C129.386 181.834 115.465 182.115 104.262 181.459C99.3873 181.177 92.7312 180.849 89.4969 180.708L83.6377 180.521L90.2 181.881C102.715 184.46 110.778 185.351 122.074 185.351C131.918 185.398 132.48 185.351 134.355 184.32C136.511 183.194 137.308 182.115 137.308 180.38C137.308 173.861 116.027 163.684 87.3876 156.556C78.3879 154.305 76.9348 153.976 77.3567 154.398Z" fill="#0B7560"/>
<path d="M87.153 185.961C87.153 187.79 89.356 198.717 90.9028 204.674C96.5277 226.388 105.387 245.616 113.262 253.26C115.277 255.23 116.683 255.934 126.527 259.873C132.574 262.312 139.933 265.36 142.839 266.673C151.276 270.519 158.073 274.787 157.135 275.725C156.151 276.71 147.292 277.179 134.027 276.944C121.464 276.757 120.433 276.757 122.777 277.366C125.917 278.211 125.683 278.164 134.027 279.336C151.042 281.822 160.041 281.024 161.729 276.944C162.198 275.866 162.151 275.303 161.541 274.037C158.823 268.362 140.401 260.248 121.558 256.403C117.808 255.652 116.215 255.09 115.558 254.386C113.168 251.666 109.184 242.192 99.4338 216.117C93.7153 200.875 87.9498 186.289 87.3404 185.68C87.2467 185.586 87.153 185.68 87.153 185.961Z" fill="#0B7560"/>
<path d="M301.834 234.876C301.037 235.674 300.897 236.424 300.897 240.129C300.897 250.963 294.803 265.736 280.413 289.982C278.069 293.922 278.022 294.062 279.616 292.327C285.522 285.808 294.287 272.677 299.068 263.156L302.162 256.966L302.443 263.625C303.568 288.669 303.24 310.149 301.647 317.887C301.272 319.575 301.037 320.982 301.131 321.076C301.365 321.357 303.287 315.917 303.943 312.962C306.803 300.675 308.115 274.834 307.037 251.994C306.381 238.534 306.006 234.97 305.068 234.361C303.99 233.704 302.818 233.892 301.834 234.876Z" fill="#0B7560"/>
<path d="M126.574 279.993C127.793 282.291 136.042 294.625 139.277 298.987C153.432 317.981 169.604 333.41 185.4 342.978C198.29 350.81 216.524 358.36 236.211 364.082C248.305 367.552 267.757 371.867 268.413 371.164C268.601 371.023 268.413 370.882 267.992 370.882C267.054 370.882 246.992 364.363 237.852 361.034C211.79 351.607 191.963 342.04 178.979 332.66C164.166 321.92 147.526 305.271 131.027 284.683C128.496 281.54 126.339 278.961 126.246 278.961C126.105 278.961 126.293 279.43 126.574 279.993Z" fill="#0B7560"/>
<path d="M316.505 281.728C315.709 282.479 315.521 283.417 315.287 287.919C314.912 295.376 313.271 300.91 308.115 312.306C305.35 318.45 301.037 326.563 295.881 335.239C291.756 342.18 292.741 341.477 299.022 333.129C306.1 323.702 310.974 315.777 314.818 307.382L316.271 304.146L316.646 306.444C316.834 307.71 317.021 320.232 317.021 334.301C317.068 356.297 316.974 360.377 316.271 363.613C315.849 365.677 315.381 367.787 315.193 368.303C315.006 368.959 315.099 368.866 315.615 368.068C317.396 365.208 319.505 355.453 320.677 344.385C321.427 337.35 321.474 292.374 320.724 286.559C320.021 281.306 318.662 279.712 316.505 281.728Z" fill="#0B7560"/>
<path d="M336.802 337.819C336.427 338.194 335.958 339.554 335.817 340.773C334.88 348.183 334.646 349.028 332.349 353.67C331.036 356.297 328.177 361.268 325.974 364.739C323.771 368.162 321.99 371.117 321.99 371.257C321.99 371.867 327.38 366.239 330.568 362.347C332.396 360.096 333.942 358.313 334.036 358.407C334.317 358.642 332.349 384.858 331.599 391.518C331.224 394.754 330.708 398.13 330.474 399.021C330.052 400.522 330.052 400.569 330.661 399.772C333.567 395.926 337.177 378.996 338.864 361.034C339.38 355.734 340.083 348.981 340.505 346.026C341.161 340.773 341.067 338.897 340.13 337.678C339.52 336.881 337.692 336.975 336.802 337.819Z" fill="#0B7560"/>
<path d="M229.274 374.728C227.868 376.135 228.665 377.401 233.071 380.871C242.164 388.141 255.851 397.614 265.601 403.383C270.71 406.384 278.96 410.746 279.616 410.746C279.804 410.746 277.741 409.245 275.069 407.369C267.242 402.023 246.523 386.359 247.227 386.359C247.461 386.359 249.617 386.968 252.101 387.719C261.664 390.673 279.851 394.8 286.132 395.457C288.569 395.738 288.944 395.832 265.273 388.188C247.648 382.466 239.024 379.042 234.289 375.853C231.664 374.118 230.211 373.79 229.274 374.728Z" fill="#0B7560"/>
<path d="M244.367 401.085C243.945 401.741 243.711 402.586 243.852 402.961C244.461 404.602 261.242 417.171 272.632 424.534C278.163 428.098 288.147 433.82 292.225 435.743C295.741 437.431 295.553 437.291 287.725 431.71C278.257 425.003 262.367 412.997 262.648 412.716C262.742 412.669 265.648 413.419 269.07 414.451C278.96 417.312 300.616 422.049 303.616 422.002C304.037 421.955 300.709 420.782 296.21 419.375C268.038 410.512 256.742 406.384 250.742 402.773C245.68 399.725 245.352 399.631 244.367 401.085Z" fill="#0B7560"/>
<path d="M360.098 472.183C365.067 479.077 380.348 502.057 385.269 509.936C400.128 533.667 410.253 553.974 413.675 566.777C415.315 573.015 415.456 579.393 413.956 582.254C412.597 584.833 411.097 585.959 407.347 587.084C387.379 593.275 317.865 596.417 273.569 593.181C253.414 591.681 239.961 589.007 236.821 585.865C235.883 584.927 235.742 584.317 235.742 581.316C235.742 579.393 236.071 576.063 236.492 573.906C239.633 557.257 255.992 524.381 281.351 483.673C287.632 473.59 287.538 473.778 286.975 474.293C285.991 475.185 276.71 488.504 269.96 498.681C242.867 539.623 228.852 570.482 230.961 584.505C231.43 587.553 231.618 587.929 233.586 589.758C238.461 594.166 251.82 597.074 276.991 599.137C289.366 600.169 339.943 600.31 354.802 599.372C383.629 597.543 403.878 594.588 411.847 591.071C420.706 587.131 422.393 576.767 416.675 560.681C409.878 541.452 390.847 510.781 365.489 478.186C359.489 470.495 356.583 467.212 360.098 472.183Z" fill="#0B7560"/>
<path d="M313.553 526.116C306.99 526.304 299.912 526.726 297.85 527.054C288.85 528.368 279.054 530.9 275.116 532.917C271.085 534.933 271.32 533.995 271.46 550.128L271.601 564.433L272.866 566.355C273.569 567.387 275.163 568.888 276.382 569.591L278.632 570.904L319.787 571.045C346.645 571.092 361.551 570.998 362.723 570.67C365.442 569.967 368.161 567.762 369.379 565.183C370.504 562.979 370.504 562.697 370.504 549.472V536.059L369.332 534.746C367.082 532.307 358.833 529.165 349.177 527.007C343.88 525.835 332.677 525.554 313.553 526.116Z" fill="#0B7560"/>
</g>
</svg>
