<svg viewBox="0 0 160 100" fill="#F7F7F7" xmlns="http://www.w3.org/2000/svg">
<path d="M56.9126 0.312355C56.4123 0.812651 55.7244 1.86327 54.8364 3.47673C54.3986 4.26469 53.8108 5.30281 53.5106 5.77809C53.2105 6.26588 52.9728 6.70364 52.9728 6.76617C52.9728 6.82871 52.6601 7.36653 52.2724 7.95438C51.8722 8.55473 51.3969 9.40523 51.1968 9.84299C50.609 11.1688 47.8574 15.4588 45.3435 18.9859C43.9177 20.9871 42.0416 23.8513 41.2411 25.2396C41.0285 25.6148 40.5657 26.2652 40.2155 26.678C38.0393 29.2795 37.6141 29.8673 33.0239 36.7464C31.7607 38.635 30.4475 40.5236 30.0973 40.9364C28.9216 42.3372 26.9955 44.9262 26.0324 46.4146C25.5071 47.2151 24.6442 48.3783 24.1314 48.9786C23.2809 49.9667 22.9682 50.3795 21.9676 51.9304C21.7925 52.2056 21.1672 52.956 20.5793 53.6064C18.8784 55.4825 18.0529 56.5081 16.8897 58.1966C16.2394 59.1221 15.4514 60.0727 14.9636 60.5105C11.7743 63.3997 11.0739 64.0751 11.0739 64.2002C11.0739 64.2877 10.8738 64.5128 10.6362 64.6879C10.1984 65.0256 10.0483 65.5259 10.336 65.701C10.5611 65.8511 11.3741 65.1882 12.5247 63.9375C13.1376 63.2621 14.5759 61.7862 15.7141 60.6481C16.8647 59.5099 18.0279 58.2341 18.303 57.8214C18.5782 57.4086 19.3161 56.5081 19.9415 55.8202C20.9921 54.682 21.5924 53.8565 22.8681 51.8553C23.1183 51.4551 23.6686 50.7547 24.0938 50.2919C24.5191 49.8292 25.207 48.9912 25.6322 48.4408C26.045 47.8905 26.6453 47.1526 26.9705 46.8149C27.2832 46.4647 27.5833 46.0519 27.6209 45.8768C27.7459 45.389 29.9472 42.6249 30.3099 42.4873C30.7101 42.3372 30.8352 42.1621 30.8352 41.7744C30.8352 41.6118 31.0853 41.1615 31.3855 40.7738C32.0734 39.8608 34.2246 36.6338 35.0751 35.208C35.4378 34.6076 36.0757 33.6571 36.4884 33.0942C36.9011 32.5314 37.8017 31.2682 38.477 30.2926C39.1524 29.3045 40.0655 28.0413 40.5032 27.4909C40.941 26.9406 41.5163 26.1026 41.7664 25.6273C42.0291 25.1646 42.717 24.139 43.2923 23.351C43.8801 22.563 44.5555 21.5874 44.8057 21.1747C45.0558 20.762 45.406 20.2492 45.5936 20.049C45.7812 19.8364 46.3065 19.111 46.7568 18.4231C47.207 17.7352 47.9324 16.7096 48.3702 16.1467C48.8079 15.5839 49.4083 14.6959 49.6959 14.158C49.9961 13.6327 50.5339 12.7947 50.9091 12.307C51.2718 11.8192 51.6971 11.1187 51.8472 10.7435C52.1724 9.90553 52.9728 8.52972 53.3856 8.07945C53.5607 7.89184 53.7733 7.52912 53.8483 7.26647C54.0985 6.49101 55.099 4.62741 55.5743 4.06458C55.8119 3.7769 56.3497 2.96392 56.7625 2.26351C57.1752 1.55059 57.5629 0.975247 57.613 0.975247C57.663 0.975247 57.8756 1.11283 58.0757 1.28793C58.6385 1.76321 58.9637 1.83826 61.2025 2.03838C62.3532 2.15094 63.804 2.28852 64.4168 2.36357C67.1559 2.67625 68.0689 2.72628 72.7341 2.80133C80.3759 2.9264 82.7023 2.73879 87.8927 1.58811C90.1815 1.08781 91.4072 0.96274 92.5954 1.10032C93.9212 1.26292 94.3839 1.41301 95.6847 2.0759C97.6858 3.11401 98.6739 4.35225 100.2 7.67921L100.8 9.005L100.15 9.58034C99.6119 10.0681 99.4618 10.3058 99.2617 10.9436C99.1367 11.3689 98.6114 12.4445 98.0861 13.3201C97.5733 14.2081 96.9604 15.3588 96.7103 15.8841C96.0599 17.3099 94.3714 20.2366 91.5948 24.8018C91.007 25.7649 90.094 27.4284 89.5812 28.4915C89.0559 29.5547 88.2805 30.968 87.8552 31.6184C87.43 32.2688 86.6295 33.5945 86.0792 34.5576C85.5289 35.5207 84.9536 36.4712 84.791 36.6839C84.6409 36.884 84.1906 37.6469 83.8029 38.3724C83.4027 39.0978 82.5647 40.4486 81.9268 41.3741C81.3015 42.2997 80.2384 44.1008 79.563 45.364C78.1497 48.0156 77.1116 49.7541 75.2355 52.5683C73.522 55.1323 72.5715 56.6457 71.7585 58.1341C71.3958 58.7844 70.4328 60.2728 69.6073 61.4485C66.9058 65.3008 66.6431 65.7135 66.2929 66.6516C65.8802 67.7272 64.9171 69.6659 63.8915 71.4795C61.6778 75.3568 60.8523 76.4824 60.8523 75.6194C60.8523 75.2692 59.8893 74.3812 59.2014 74.0935C58.1258 73.6432 57.8131 73.4556 56.6374 72.4675C54.4111 70.6039 53.7858 70.1162 52.9603 69.6284L52.1348 69.1406L47.4572 69.2782C41.9665 69.4533 23.1433 69.4408 19.0785 69.2656C16.0142 69.1406 14.776 68.953 13.025 68.3651C11.3241 67.8023 10.7988 67.4896 10.2735 66.7642C10.0233 66.4265 9.77317 66.1388 9.71064 66.1388C9.49802 66.1388 9.07277 66.8642 9.07277 67.2269C9.07277 67.4396 9.22286 67.7773 9.473 68.0649C10.0358 68.7403 9.98579 69.1156 9.14782 70.679C8.74759 71.4169 8.38488 72.2924 8.30984 72.6927C8.18477 73.2805 8.09722 73.4306 7.74702 73.6557C7.28425 73.9434 6.78397 74.5313 6.28368 75.4193C6.09608 75.7445 5.65833 76.2573 5.30813 76.545C4.62023 77.1453 4.08243 77.9083 3.75724 78.7963C3.45707 79.6093 2.99431 80.0095 2.00624 80.2847C1.01818 80.5598 0.117665 81.0476 0.0176077 81.3728C-0.0324209 81.5104 0.0301148 81.8231 0.130172 82.0732C0.242736 82.3484 0.305272 82.6986 0.255243 82.8862C0.167693 83.3115 0.280257 83.4115 1.29334 83.7742C2.04376 84.0494 2.18134 84.0619 4.60773 83.9744C5.99602 83.9368 7.44685 83.8368 7.82206 83.7742C9.16032 83.5366 17.1399 83.349 26.6453 83.349C33.0615 83.3365 36.8636 83.2864 38.0268 83.1864C40.6408 82.9613 46.2065 82.7361 47.9825 82.7861C49.4333 82.8362 49.5959 82.8612 50.0461 83.1614C50.8341 83.6867 52.0473 84.262 53.4106 84.7873C54.0985 85.0375 54.974 85.4002 55.3617 85.5628C55.7369 85.7379 56.75 86.0506 57.613 86.2632C58.4634 86.4758 59.4515 86.751 59.7892 86.8886C60.6272 87.2013 62.7659 87.4514 64.0291 87.3639C64.8671 87.3138 65.2673 87.2013 66.4055 86.726C68.6818 85.7504 69.4072 85.5878 71.4208 85.6003C73.7347 85.6128 76.2111 86.1131 79.7381 87.2763C81.1514 87.7516 82.7523 88.2019 83.3026 88.2894C83.9405 88.3895 84.3907 88.527 84.5283 88.6771C84.866 89.0148 85.8291 89.4651 86.8046 89.7528C87.2924 89.8904 88.5556 90.2656 89.6187 90.5783C91.6949 91.1786 95.8973 92.2918 96.9479 92.5044C97.2856 92.5794 98.0735 92.7045 98.6989 92.7796C99.4994 92.8796 100.012 93.0172 100.525 93.2924C101.35 93.7176 104.877 94.9308 106.253 95.281C106.766 95.4061 107.354 95.5687 107.541 95.6438C107.742 95.7188 108.705 95.9815 109.668 96.2316C112.294 96.882 114.433 97.5074 115.684 97.9826C116.284 98.2203 117.36 98.558 118.047 98.7331C118.748 98.9082 119.648 99.2084 120.074 99.4085C121.012 99.8587 122.012 100.084 122.613 99.9713C124.138 99.6962 126.115 98.1953 126.39 97.1196C126.465 96.832 126.602 96.4067 126.702 96.1816C126.802 95.9564 127.003 95.281 127.128 94.6682C127.29 93.9302 127.59 93.1298 128.066 92.2042C128.441 91.4538 128.979 90.2155 129.241 89.4651C129.516 88.7021 129.967 87.5765 130.229 86.9636C130.505 86.3382 130.892 85.3627 131.08 84.7748C131.518 83.449 132.331 81.5479 133.581 78.9589C134.845 76.3323 135.47 74.8439 135.632 74.1185C135.708 73.7933 136.958 71.0917 138.409 68.115C141.611 61.5736 142.311 60.0977 143.337 57.8089C143.775 56.8333 144.838 54.632 145.701 52.9185C147.389 49.5415 148.565 47.04 149.928 44.0007C150.403 42.9376 150.866 41.9745 150.966 41.8619C151.066 41.7619 151.154 41.5242 151.154 41.3491C151.154 41.174 151.266 40.9364 151.404 40.8113C151.542 40.6862 151.654 40.4361 151.654 40.236C151.654 40.0484 151.904 39.423 152.229 38.8477C153.08 37.2717 155.056 33.1943 155.519 32.0311C155.744 31.4683 156.019 30.9305 156.119 30.8554C156.607 30.4427 156.945 29.4421 157.27 27.3659C157.445 26.3027 157.883 25.2146 158.658 23.9889C159.359 22.8632 159.871 21.725 159.984 21.0121C160.084 20.3867 159.709 19.5362 159.133 19.0484C158.783 18.7483 158.683 18.7358 157.232 18.7358C155.506 18.7358 155.181 18.6482 154.055 17.9478C153.142 17.3724 153.142 17.3599 153.73 15.9841C153.918 15.5339 154.093 14.8835 154.131 14.5458C154.181 13.9955 154.143 13.8579 153.855 13.5202C153.43 13.0199 153.192 12.9448 150.441 12.4946C148.677 12.2069 147.714 11.9693 146.126 11.4314C145 11.0562 143.725 10.681 143.274 10.6059C142.486 10.4684 140.41 9.79296 137.709 8.79237C135.858 8.10447 132.831 7.26647 130.73 6.84122C129.717 6.6411 128.391 6.29089 127.791 6.06576C127.19 5.82812 126.227 5.51543 125.639 5.36534C124.238 4.99012 121.387 3.96452 119.823 3.2641C118.31 2.5887 117.522 2.40109 115.571 2.23849C113.07 2.01336 111.919 2.06339 110.931 2.40109C107.879 3.43921 105.628 4.75248 103.377 6.79119C101.663 8.35461 101.613 8.39214 101.438 8.21703C101.338 8.11697 101.063 7.50411 100.813 6.85373C99.687 3.98953 98.874 2.88888 96.8729 1.53808C94.1088 -0.325522 92.8581 -0.400567 86.4919 0.837666C81.0889 1.87578 80.8887 1.90079 73.5471 1.90079C68.7443 1.90079 66.7432 1.86327 66.2929 1.75071C65.9552 1.67566 64.6295 1.52557 63.3537 1.41301C60.7648 1.21289 59.9268 1.03778 58.6636 0.412414C57.6005 -0.112896 57.3628 -0.125404 56.9126 0.312355ZM114.783 3.47673C115.358 3.61431 116.071 3.72688 116.384 3.72688C117.259 3.73938 117.835 3.91449 119.974 4.80251C122.675 5.92818 128.403 7.80429 129.829 8.04193C130.455 8.14199 131.33 8.3296 131.768 8.46718C132.218 8.60476 133.394 8.91745 134.394 9.16759C136.858 9.78046 138.509 10.2933 139.772 10.8686C140.473 11.1688 141.386 11.4439 142.436 11.6566C144.162 11.9943 145.225 12.307 146.214 12.7322C147.164 13.1449 148.665 13.4576 150.466 13.6202C151.366 13.6953 152.279 13.8329 152.505 13.9204C152.855 14.0705 152.905 14.1455 152.905 14.5833C152.905 15.834 152.092 17.3599 149.791 20.4117C147.852 22.9758 146.889 24.4892 144.938 28.0663C142.849 31.856 140.56 35.5082 138.922 37.6595C138.046 38.8226 137.396 39.8983 136.02 42.4873C135.057 44.3259 134.682 44.9513 132.306 48.8161C131.755 49.7041 130.805 51.28 130.192 52.3181C129.592 53.3437 127.966 55.8827 126.577 57.9465C125.202 60.0102 123.588 62.4866 123.013 63.4497C121.199 66.4765 117.897 71.5795 115.096 75.6819C114.633 76.3573 113.995 77.4205 113.682 78.0584C112.882 79.6468 111.869 81.1727 111.381 81.5229C111.043 81.7605 110.743 81.8356 109.718 81.9106C108.517 81.9857 108.454 82.0107 107.717 82.5235L106.966 83.0613L105.015 82.611C102.576 82.0482 102.626 82.0607 100.763 81.8981C99.5494 81.7981 98.949 81.673 97.961 81.3353C97.2731 81.0976 96.5977 80.8975 96.4726 80.8975C96.3476 80.8975 94.9718 80.4473 93.4084 79.9094C91.8325 79.3591 89.4937 78.5712 88.1804 78.1584C86.8797 77.7332 85.3288 77.1578 84.7409 76.8827C83.3526 76.2323 82.4521 75.9446 81.0638 75.707C80.4385 75.5944 79.538 75.3943 79.0502 75.2567C77.862 74.9065 74.7728 73.4056 73.7597 72.6802C72.659 71.9047 71.8586 71.6421 70.1701 71.567C68.3191 71.467 67.381 71.6421 66.493 72.2174C65.4174 72.9303 63.9791 74.3687 63.7039 75.0191C63.3788 75.807 62.8535 76.1822 62.8535 75.6444C62.8535 75.2942 63.8415 73.3431 64.7921 71.8297C65.9927 69.9035 66.3054 69.2907 66.7307 68.0774C67.2935 66.4765 67.8563 65.4634 68.9444 64.1251C70.2076 62.5492 70.9206 61.5361 71.1457 60.9983C71.2457 60.7481 71.746 59.9601 72.2713 59.2472C72.7841 58.5343 73.5596 57.2961 73.9848 56.5081C74.41 55.7201 75.0229 54.707 75.3481 54.2568C75.6733 53.8065 76.061 53.2187 76.1986 52.9435C76.3361 52.6683 76.8114 51.9304 77.2492 51.3175C77.6869 50.6922 78.4624 49.4164 78.9752 48.4658C79.4754 47.5153 80.0007 46.6773 80.1258 46.5772C80.2634 46.4897 80.5135 46.0269 80.6886 45.5641C80.8512 45.0888 81.2014 44.426 81.4766 44.0757C81.7392 43.7255 82.0644 43.1627 82.2145 42.8375C82.3646 42.4998 82.7398 41.887 83.065 41.4617C83.3777 41.0364 83.7529 40.4611 83.8905 40.1859C84.4032 39.1728 85.679 37.0216 86.7421 35.3706C87.3424 34.445 87.9428 33.457 88.0803 33.1818C88.2179 32.9066 88.6182 32.2938 88.9809 31.806C89.6312 30.9305 90.8694 28.6291 90.8694 28.2789C90.8694 27.9287 92.0326 25.8525 92.4954 25.3647C92.758 25.0895 93.3208 24.189 93.7336 23.376C94.1588 22.5505 94.6341 21.725 94.7967 21.5249C94.9593 21.3373 95.422 20.5868 95.8098 19.8614C96.21 19.136 96.8228 18.0979 97.1605 17.5601C97.4982 17.0097 98.011 16.0467 98.3112 15.4213C98.5988 14.7834 99.1241 13.8454 99.4618 13.3451C99.812 12.8323 100.3 12.0068 100.55 11.5065C100.9 10.8186 101.375 10.2057 102.426 9.09255C103.977 7.45408 104.502 7.01632 106.253 5.82812C107.354 5.09018 110.456 3.56428 111.319 3.35165C112.057 3.16404 113.72 3.22658 114.783 3.47673ZM153.405 18.8608C153.505 19.0359 153.505 19.2611 153.405 19.5988C153.255 20.1491 152.017 23.0383 150.541 26.2777C149.991 27.5034 149.528 28.529 149.528 28.5541C149.528 28.5916 149.14 29.4421 148.677 30.4552C148.202 31.4808 147.627 32.8316 147.402 33.482C146.776 35.233 145.438 37.8721 144.362 39.4855C143.837 40.2735 143.312 41.174 143.199 41.4867C142.399 43.6755 141.348 45.8268 139.697 48.7035C138.647 50.5421 137.208 52.6933 136.596 53.3562C136.295 53.6814 135.657 54.5319 135.157 55.2574C134.669 55.9828 133.932 57.0459 133.519 57.6338C132.08 59.71 129.704 64.1251 127.24 69.3282C126.84 70.1537 126.24 71.3044 125.902 71.8922C125.564 72.4801 125.014 73.4181 124.701 73.9809C124.376 74.5438 123.888 75.2317 123.626 75.5193C123.288 75.8696 123.138 76.1572 123.138 76.3949C123.138 76.8451 122.813 77.7207 121.85 79.8969C121.437 80.8225 120.912 82.0607 120.674 82.6486C119.823 84.7623 118.86 86.2757 118.235 86.4758C118.11 86.5134 118.01 86.6384 118.01 86.751C118.01 86.8511 117.747 87.5014 117.435 88.1893C116.884 89.34 116.872 89.4401 117.059 89.6277C117.259 89.8278 117.285 89.8278 117.41 89.5902C117.497 89.4526 117.797 89.0899 118.085 88.7772C118.373 88.4645 118.648 88.0768 118.698 87.9142C118.748 87.7516 119.123 87.1137 119.523 86.4883C119.936 85.8755 120.261 85.3001 120.261 85.2251C120.261 85.1375 120.561 84.4496 120.937 83.6992C121.312 82.9487 121.837 81.773 122.112 81.0851C122.938 79.0464 123.25 78.3961 125.502 74.2311C126.677 72.0548 128.578 68.3901 129.717 66.1013C132.206 61.1233 133.081 59.5349 134.019 58.2716C134.407 57.7463 135.057 56.8083 135.482 56.1954C135.895 55.57 136.646 54.5569 137.133 53.9441C139.572 50.8923 141.498 47.5903 143.137 43.6255C143.487 42.7625 143.925 41.7744 144.1 41.4242C144.613 40.3861 146.939 36.9215 147.001 37.0966C147.026 37.1967 146.926 37.6469 146.776 38.0972C146.451 39.0603 145.113 42.1371 144.775 42.6874C144.287 43.5004 143.399 45.4015 142.649 47.2526C141.236 50.7547 140.51 52.1555 138.847 54.4944C137.896 55.8452 137.333 56.9834 136.646 58.947C135.77 61.4485 134.97 62.8869 133.306 64.9756C132.118 66.464 131.343 67.6647 130.142 69.891C129.642 70.8166 128.954 72.0173 128.616 72.5551C127.765 73.9059 126.177 77.3329 125.327 79.6468C124.939 80.7099 124.476 81.8606 124.289 82.1983C123.963 82.7861 123.163 83.4741 122.9 83.374C122.825 83.349 122.988 82.6736 123.288 81.773C123.826 80.1471 125.927 75.832 126.702 74.7689C127.19 74.0935 128.003 72.4926 128.578 71.0667C128.816 70.4914 129.266 69.6159 129.592 69.1156C129.917 68.6153 130.43 67.7272 130.717 67.1519C131.017 66.5766 131.518 65.7761 131.83 65.3633C132.143 64.9506 132.568 64.2377 132.768 63.7874C133.381 62.4616 133.881 61.5486 134.845 59.9977C135.845 58.4092 136.483 57.1835 136.37 57.0709C136.208 56.9083 135.858 57.2085 135.57 57.7839C135.395 58.1341 134.794 59.1096 134.244 59.9727C133.694 60.8357 132.893 62.199 132.468 62.9994C132.03 63.7999 131.368 64.9256 130.992 65.5134C130.605 66.1013 130.204 66.8017 130.092 67.0769C129.979 67.3395 129.592 68.0149 129.241 68.5652C128.879 69.1281 128.216 70.4163 127.74 71.4419C127.278 72.4675 126.815 73.3931 126.715 73.5057C126.615 73.6182 126.14 74.5062 125.652 75.4818C125.164 76.4574 124.576 77.5706 124.339 77.9333C123.888 78.6462 123.338 79.8969 122.638 81.8356C122.412 82.4484 121.975 83.4615 121.675 84.0744C121.149 85.125 121.074 85.5253 121.399 85.5253C121.474 85.5253 122.037 85.0375 122.65 84.4371C123.263 83.8493 123.788 83.3865 123.826 83.424C124.038 83.6241 122.875 86.5259 121.725 88.6646C120.636 90.7033 120.124 92.667 120.499 93.2673C120.636 93.48 120.761 93.2298 121.024 92.2417C121.099 91.904 121.487 91.2036 121.887 90.6158C122.512 89.7278 122.725 89.265 123.413 87.2138C125.327 81.6105 126.69 78.0083 127.991 75.1441C128.203 74.6939 128.891 73.4431 129.542 72.3675C130.179 71.2918 131.042 69.791 131.455 69.0155C131.868 68.2525 132.581 67.1519 133.031 66.5766C134.194 65.1007 135.808 62.7118 136.445 61.4735C136.746 60.9107 137.196 59.76 137.459 58.947C138.009 57.1585 138.384 56.3955 139.572 54.607C141.786 51.2675 141.886 51.0799 142.999 48.3158C143.412 47.2776 144.112 45.6517 144.563 44.6886C145.013 43.7255 145.801 42.012 146.326 40.8864C146.851 39.7607 147.452 38.3223 147.664 37.697C147.877 37.0716 148.652 35.3456 149.403 33.8572C151.091 30.4927 151.692 29.1044 152.705 26.1401C153.63 23.4886 154.218 22.0002 154.468 21.75C154.606 21.6125 154.668 21.6375 154.843 21.9126C154.981 22.1128 155.169 22.2378 155.356 22.2378C155.932 22.2378 155.806 22.6256 154.131 26.1777C153.443 27.616 152.555 29.6047 152.142 30.5928C151.729 31.5683 150.654 33.9322 149.728 35.8459C148.815 37.747 147.952 39.5856 147.839 39.9358C147.714 40.2735 147.277 41.3241 146.864 42.2497C146.464 43.1752 145.763 44.8637 145.313 46.0019C144.863 47.1401 144.137 48.8286 143.687 49.7541C142.937 51.305 142.386 52.6058 140.773 56.5081C139.897 58.6219 139.51 59.4598 138.872 60.5105C138.046 61.8863 137.771 62.4366 136.145 66.2514C134.507 70.0911 133.356 72.4801 132.306 74.1811C131.618 75.2817 130.63 76.4324 130.279 76.545C130.129 76.595 130.129 76.645 130.304 76.8952C130.417 77.0703 130.517 77.3204 130.517 77.458C130.517 78.0709 128.028 83.5491 127.515 84.0869C127.215 84.3996 127.103 84.6623 127.015 85.2251C126.965 85.6253 126.69 86.4383 126.415 87.0262C126.14 87.614 125.714 88.5396 125.452 89.0899C124.864 90.3656 124.514 90.8284 123.988 90.9785C123.601 91.0911 123.551 91.1786 123.188 92.2167C122.65 93.7927 121.975 95.0309 121.662 95.0309C121.599 95.0309 121.074 94.6682 120.511 94.2179C119.949 93.7676 119.411 93.4049 119.311 93.4049C119.223 93.4049 118.498 92.7921 117.697 92.0416C116.909 91.2912 116.134 90.6283 115.996 90.5908C115.796 90.5157 115.659 90.5783 115.508 90.7784L115.296 91.066L113.97 90.7909C113.245 90.6533 112.219 90.3656 111.669 90.1655C109.28 89.29 108.129 88.8647 107.279 88.5145C106.703 88.2769 105.853 88.0643 105.028 87.9517C102.539 87.614 101.563 87.4139 99.687 86.8385C97.5107 86.1757 96.6853 85.8755 95.7847 85.3627C95.2594 85.075 94.8342 84.9624 93.6585 84.8249C92.0826 84.6247 90.7819 84.1495 90.2441 83.5866C89.8814 83.2114 90.019 82.9863 90.5317 83.0988C91.2822 83.2489 92.9331 83.7992 94.559 84.4246C97.8109 85.6879 101.15 86.4133 104.59 86.6384C106.003 86.726 106.116 86.751 107.254 87.3013C108.63 87.9642 110.393 88.4645 113.557 89.0899C114.796 89.3275 115.834 89.5276 115.884 89.5276C115.934 89.5276 116.009 89.2525 116.059 88.9023C116.121 88.427 116.334 88.0017 116.947 87.0637C117.397 86.4008 117.76 85.7754 117.76 85.7004C117.76 85.6128 117.647 85.5003 117.51 85.4627C117.372 85.4252 117.259 85.2876 117.259 85.1751C117.259 84.8249 118.848 81.673 119.511 80.6849C119.861 80.1846 120.136 79.7093 120.136 79.6093C120.136 79.3591 121.162 77.3204 121.687 76.5199C121.937 76.1447 122.2 75.6069 122.275 75.3317C122.35 75.0566 122.725 74.2936 123.125 73.6432C123.513 72.9929 123.901 72.3175 123.976 72.1424C124.051 71.9672 124.364 71.492 124.676 71.0792C124.976 70.6665 125.702 69.4783 126.265 68.4527C127.29 66.6016 129.016 63.087 129.016 62.8744C129.016 62.8118 128.904 62.7618 128.766 62.7618C128.628 62.7618 128.516 62.7368 128.516 62.6993C128.516 62.5242 129.166 61.386 130.467 59.3098C131.242 58.059 131.955 56.8708 132.068 56.6582C132.181 56.4456 132.493 56.0203 132.768 55.6951C133.044 55.3824 133.269 55.0447 133.269 54.9572C133.269 54.8571 133.631 54.3944 134.057 53.9066C135.52 52.2806 137.521 49.2413 138.021 47.903C138.171 47.5153 138.534 46.7899 138.847 46.3021C139.147 45.8143 139.397 45.364 139.397 45.289C139.397 45.2264 139.735 44.6886 140.16 44.1133C140.873 43.1252 141.261 42.3998 142.737 39.2479C143.074 38.5225 143.524 37.7345 143.737 37.4969C144.2 36.959 144.287 36.7964 144.888 35.3206C145.163 34.6702 145.638 33.6946 145.963 33.1693C146.289 32.6315 146.651 31.9311 146.789 31.6059C147.152 30.6553 147.952 29.1419 148.652 28.0538C149.39 26.8906 152.154 21.4248 152.467 20.4993C152.667 19.8864 152.667 19.8614 152.405 19.5112C152.179 19.211 152.154 19.0985 152.267 18.8733C152.467 18.5106 153.218 18.4981 153.405 18.8608ZM157.545 19.8739C158.133 20.024 158.345 20.2867 158.32 20.8495C158.308 21.4374 157.62 22.9883 156.757 24.4641C156.182 25.4272 155.994 25.89 155.656 27.2158C155.206 29.0168 154.431 31.1181 153.943 31.831C153.53 32.4439 153.28 33.0317 153.28 33.4194C153.28 34.295 152.004 37.4468 150.891 39.3104C150.566 39.8608 150.178 40.6237 150.041 40.9989C149.878 41.4242 149.578 41.887 149.278 42.1871C149.003 42.4498 148.777 42.75 148.777 42.85C148.777 42.9376 148.552 43.4629 148.265 44.0132C147.99 44.551 147.677 45.3515 147.589 45.7893C147.489 46.2395 147.089 47.2401 146.664 48.1031C146.251 48.9286 145.651 50.1919 145.338 50.9048C145.013 51.6052 144.4 52.8434 143.962 53.6314C143.512 54.4194 142.887 55.7952 142.549 56.6957C142.211 57.5837 141.536 59.1972 141.048 60.2603C140.573 61.3235 139.935 62.7618 139.647 63.4497C139.36 64.1376 138.622 65.7511 138.009 67.0268C137.396 68.3026 136.896 69.4282 136.896 69.5283C136.896 69.6284 136.783 69.866 136.633 70.0786C136.22 70.6915 135.582 71.9923 134.97 73.5182C134.644 74.3061 134.182 75.3067 133.944 75.7445C133.706 76.1697 133.456 76.8326 133.394 77.2078C133.331 77.5831 133.106 78.246 132.906 78.6712C132.693 79.0965 132.518 79.5467 132.518 79.6593C132.518 79.9094 129.804 85.2251 129.429 85.7004C129.266 85.9005 129.079 86.2882 129.004 86.5634C128.929 86.8511 128.679 87.2888 128.453 87.564C128.228 87.8266 127.678 88.7272 127.228 89.5652C125.202 93.3674 124.476 94.6432 124.113 95.0309C123.688 95.4937 123.275 96.3317 123.263 96.7069C123.263 96.8945 123.325 96.9195 123.676 96.857C123.888 96.8069 124.251 96.7569 124.451 96.7444C124.776 96.7194 124.826 96.7694 124.864 97.0821C124.926 97.5699 124.676 98.0952 124.314 98.2578C124.151 98.3454 123.513 98.4704 122.9 98.5455C121.675 98.6956 121.624 98.6831 120.649 97.9576C120.324 97.695 119.773 97.4698 119.111 97.2947C118.535 97.1446 116.722 96.5693 115.071 96.019C113.42 95.4687 111.731 94.9558 111.331 94.8933C109.217 94.5681 105.465 93.5675 103.627 92.8421C103.014 92.6045 102.414 92.4043 102.301 92.4043C102.176 92.4043 101.988 92.3168 101.876 92.2167C101.751 92.1042 101.3 91.9666 100.863 91.8915C100.425 91.829 99.0741 91.5163 97.8734 91.2036C96.6727 90.8784 93.8336 90.1655 91.5573 89.5902C89.2935 89.0273 86.8171 88.3269 86.0542 88.0393C85.3038 87.7516 84.3657 87.4764 83.9655 87.4014C83.5653 87.3388 82.5522 87.0637 81.7142 86.7885C80.8637 86.5134 79.8381 86.1882 79.4254 86.0756C79.0127 85.9505 78.1122 85.6128 77.4243 85.3001C76.7114 84.9875 75.4231 84.5622 74.4351 84.3121C73.4845 84.0869 72.2713 83.6867 71.746 83.449C70.808 83.0113 70.7705 82.9988 69.6073 83.0738C68.9444 83.1113 68.1315 83.2364 67.7813 83.3365C67.256 83.4866 67.1309 83.5866 67.0058 83.9493C66.9183 84.187 66.6056 84.5997 66.3054 84.8749C65.7926 85.3377 65.6926 85.3877 64.7796 85.4627C63.2287 85.6128 60.7648 85.4377 59.439 85.0875C58.8011 84.9124 57.763 84.6623 57.1127 84.5247C56.4623 84.3871 55.6869 84.1244 55.3867 83.9493C54.8489 83.6367 54.3986 82.9988 54.5362 82.7611C54.6738 82.5485 54.3486 81.4729 54.0359 81.0851L53.7483 80.7099H51.0092C49.3082 80.7099 47.5072 80.785 46.219 80.9225C42.6044 81.3103 38.402 81.4353 28.6464 81.4604C23.4185 81.4854 18.0779 81.5604 16.7647 81.6355C11.9119 81.9106 10.2109 82.0482 8.19727 82.2733C5.083 82.6361 3.84479 82.6986 3.19442 82.5235C2.88174 82.4359 2.2814 82.3359 1.84365 82.2859C1.08071 82.2108 0.830571 82.0482 0.818064 81.673C0.818064 81.1477 3.10687 80.9351 11.6367 80.6474C13.838 80.5723 16.452 80.4598 17.4526 80.3972C18.4531 80.3222 22.8181 80.1971 27.1456 80.0845C36.5509 79.8719 37.1388 79.8469 40.5908 79.4467C42.0666 79.2841 44.1803 79.109 45.2809 79.0715C47.0444 79.0089 47.5447 79.0339 49.4458 79.3216C51.8222 79.6718 52.0723 79.6968 52.335 79.5342C52.5601 79.3966 52.41 78.7713 52.1599 78.7713C52.0598 78.7713 51.522 78.5712 50.9467 78.3085L49.9086 77.8582L46.9694 78.0083C45.356 78.0959 42.8545 78.271 41.4037 78.3961C39.9654 78.5211 38.1644 78.6587 37.4014 78.6962C36.0382 78.7713 36.0256 78.7588 36.4634 78.5461C36.8011 78.3835 37.1763 78.3335 38.0893 78.3585C39.2275 78.3835 39.6902 78.3085 41.2536 77.8082C41.904 77.6081 42.0666 77.2704 41.5038 77.2704C41.3037 77.2704 40.8784 77.3579 40.5282 77.4705C40.1905 77.5706 39.1149 77.7081 38.1519 77.7707L36.4134 77.8832L35.0876 78.5461L33.7744 79.209L20.6419 79.2716C10.3735 79.3216 7.39682 79.3091 6.97158 79.184C6.40875 79.0214 6.03354 79.084 6.10858 79.3216C6.1336 79.3966 6.40875 79.5217 6.72143 79.6093C7.04662 79.6843 7.39682 79.8094 7.5344 79.8719C7.74702 79.997 7.74702 80.0095 7.5344 80.0971C7.40932 80.1346 6.78397 80.1471 6.1336 80.1221C4.64525 80.0595 4.52018 79.9595 4.69528 79.0464C4.85787 78.1709 5.13303 77.7707 5.57078 77.7707C5.75838 77.7707 6.08357 77.6831 6.29619 77.5706C6.59636 77.4205 6.78397 77.408 7.15918 77.508C7.42183 77.5706 8.25981 77.6706 9.01024 77.7081C9.77317 77.7582 11.0614 77.8707 11.8869 77.9833C13.6004 78.2084 13.8255 78.2084 21.8301 78.1084C29.0342 78.0333 32.7363 77.7707 37.4014 77.0202C39.8153 76.6325 42.842 76.3949 45.5436 76.3949C48.958 76.3949 49.9711 76.6575 52.9103 78.346C54.8614 79.4592 55.049 79.5342 55.5743 79.4467C55.912 79.3966 56.1871 79.4342 56.4498 79.5717C56.9751 79.8469 57.0001 79.8344 56.9626 79.3466C56.9376 79.109 56.9501 78.8713 57.0001 78.8338C57.1002 78.7338 58.1883 79.7093 58.3634 80.047C58.476 80.2471 58.4009 80.3722 57.9632 80.7599L57.4254 81.2352L58.0757 81.698C58.601 82.0857 58.7011 82.2108 58.601 82.3859C58.4009 82.7611 58.1383 82.9112 57.8131 82.8362C57.3628 82.7236 57.1377 82.4234 57.0126 81.7856C56.9126 81.2602 56.875 81.2227 56.2372 81.0101C55.8745 80.885 55.4868 80.7099 55.3992 80.6349C55.2991 80.5598 55.1366 80.5223 55.0365 80.5723C54.7488 80.6849 54.8114 81.1227 55.1741 81.4604C55.4742 81.7355 55.4868 81.7856 55.3367 82.1983C55.1491 82.7361 55.2366 82.8612 55.6619 82.6736C56.1621 82.4359 56.4748 82.4985 56.9251 82.8862C57.2377 83.1614 57.5129 83.2739 58.0632 83.349C58.4634 83.3865 59.0138 83.5491 59.2889 83.6992C59.7392 83.9368 59.9893 83.9618 62.0405 83.9618H64.2918L65.2673 83.4991C66.5306 82.8987 66.9808 82.561 66.9808 82.2608C66.9808 81.773 65.7926 81.7105 65.2548 82.1858C64.5919 82.7611 64.1917 82.7111 63.7415 81.9857C63.4913 81.5854 63.4413 81.5604 62.7409 81.5479C61.9029 81.5354 60.8023 81.3603 59.8642 81.0726C59.2139 80.885 58.7261 80.4222 58.7261 79.997C58.7261 79.3216 57.763 78.3961 57.0626 78.3961C56.5373 78.3961 56.2747 78.2209 54.974 76.9577C54.3111 76.3323 53.5356 75.6444 53.2355 75.4568C52.7352 75.1191 52.6852 75.1066 52.5351 75.3067C52.4475 75.4193 52.3224 75.5193 52.2474 75.5193C52.1724 75.5193 51.2468 75.1441 50.1962 74.6688L48.2826 73.8308L46.244 73.8559C43.9427 73.8809 42.4043 73.9934 37.0888 74.5188C33.7118 74.8565 32.336 74.9565 25.7073 75.4193C24.394 75.5068 20.4918 75.5694 15.9892 75.5694C11.8494 75.5819 8.4224 75.6194 8.37237 75.6694C8.22229 75.8195 8.5975 76.1572 8.81012 76.0697C8.92269 76.0322 12.8374 75.9821 17.5151 75.9571C27.1706 75.9321 33.2241 75.6945 36.8386 75.2067C37.564 75.1191 38.7647 74.994 39.5276 74.9565C40.2781 74.9065 41.2161 74.7939 41.5913 74.7064C42.4168 74.4937 44.8682 74.2686 46.3565 74.2686C47.2821 74.2686 47.4947 74.3061 47.8574 74.5563C48.095 74.7189 48.6453 74.9315 49.0956 75.0441C49.5459 75.1566 50.8091 75.6444 51.9097 76.1322C53.4481 76.8201 54.0234 77.1453 54.3861 77.5205C55.3492 78.5336 54.8114 78.6712 53.223 77.8082C50.8591 76.5324 49.6084 76.0322 47.995 75.757C46.9819 75.5819 43.2047 75.6819 40.7158 75.9446C39.7903 76.0447 37.7391 76.2198 36.1507 76.3323C32.8113 76.5575 31.348 76.7201 30.8602 76.9202C30.5225 77.0578 24.8568 77.2078 17.0773 77.2954C14.1632 77.3204 13.3877 77.2954 12.012 77.0828C10.4611 76.8451 9.8232 76.8201 8.34736 76.9202C7.73451 76.9577 7.64696 76.9202 7.3718 76.6075C7.05913 76.2323 6.97158 75.5694 7.1967 75.1441C7.25924 75.0191 7.49687 74.8565 7.722 74.7689C8.20978 74.6063 11.1865 74.4562 17.6402 74.2686C20.2542 74.1936 23.2934 74.056 24.394 73.9559C25.5071 73.8559 29.3969 73.6307 33.0615 73.4556C36.726 73.293 39.7653 73.1304 39.8153 73.0929C40.2531 72.8303 46.4816 72.4801 47.9074 72.6301C50.1462 72.8928 52.0973 73.5557 53.5982 74.5813C54.111 74.944 54.9615 75.4693 55.4742 75.757C56.775 76.4949 57.8756 77.2954 58.9137 78.271C60.2645 79.5467 60.6147 79.7969 60.7773 79.6593C60.8523 79.5968 61.115 79.134 61.3526 78.6587C61.5777 78.1709 61.8279 77.7707 61.8779 77.7707C62.028 77.7707 62.5908 78.9964 62.6283 79.3966C62.6658 79.6843 62.6283 79.7093 62.1906 79.6718C61.9404 79.6468 61.6278 79.6843 61.5152 79.7594C61.3401 79.8469 61.3901 79.8969 61.7778 79.997C62.0405 80.072 62.4532 80.2847 62.7034 80.4848C63.4788 81.0976 63.5914 81.1227 64.1542 80.9601C64.5169 80.8475 64.767 80.8475 65.0297 80.9351C65.3674 81.0476 65.3799 81.0726 65.1548 81.1602C64.717 81.3353 65.4549 81.2853 66.418 81.0851C66.8933 80.9851 67.5311 80.8975 67.8188 80.8975C68.3941 80.8975 70.833 81.6605 72.0212 82.1983C72.4714 82.4109 73.1343 82.586 73.7722 82.6486C74.335 82.7111 75.248 82.8862 75.7983 83.0363C77.2367 83.424 77.7369 83.5116 78.1747 83.4365C78.4499 83.399 78.7625 83.4741 79.2003 83.6992C80.3259 84.262 82.3521 85.025 83.4152 85.2751C83.9655 85.4127 84.766 85.6378 85.1787 85.7754C85.5914 85.9255 86.4544 86.1006 87.0923 86.1631C88.0053 86.2632 88.5306 86.4008 89.4186 86.776C90.044 87.0387 91.1446 87.4014 91.87 87.5765C93.2958 87.9267 94.2339 88.2144 96.5602 89.0273C97.3857 89.315 98.9866 89.8278 100.125 90.1655C101.263 90.5032 102.926 91.0285 103.814 91.3412C105.753 92.0041 107.316 92.2918 108.705 92.2542C109.805 92.2292 109.63 92.1667 112.069 93.455C112.644 93.7551 113.245 93.9553 113.82 94.0428C114.308 94.1179 115.321 94.418 116.071 94.7182C116.834 95.0184 117.935 95.4061 118.535 95.5937L119.623 95.9314L120.049 95.6688C120.449 95.4311 120.511 95.4186 120.837 95.5937C121.262 95.8064 121.925 95.8314 122.275 95.6563C122.412 95.5812 122.688 95.1685 122.888 94.7432C123.088 94.318 123.613 93.53 124.038 93.0047C124.876 91.9916 126.227 89.9404 126.177 89.7653C126.115 89.5777 126.715 88.1518 127.828 85.7754C128.428 84.4997 129.116 82.9863 129.354 82.3984C129.592 81.8106 129.867 81.1602 129.954 80.9476C130.054 80.7349 130.329 80.047 130.567 79.4342C131.13 77.9583 131.555 77.1328 132.018 76.595C132.231 76.3699 132.468 75.9571 132.568 75.6819C132.668 75.4068 133.444 73.7308 134.307 71.9422C135.17 70.1662 136.27 67.7397 136.746 66.5766C137.796 64.0125 138.246 63.0745 138.897 62.0739C139.41 61.2859 141.348 57.0584 142.399 54.4444C142.737 53.6189 143.299 52.3306 143.65 51.5802C144.375 50.0418 146.088 46.0144 146.901 43.9382C147.202 43.1752 147.602 42.3872 147.789 42.1871C148.24 41.6868 148.477 41.174 148.565 40.5111C148.602 40.211 148.777 39.6731 148.965 39.3229C149.153 38.9727 149.403 38.4099 149.528 38.0847C149.653 37.7595 150.178 36.7464 150.704 35.8334C151.667 34.1449 151.917 33.582 152.405 32.0686C152.742 31.0055 154.081 28.0037 155.269 25.6273C156.119 23.9513 156.657 22.588 156.657 22.1628C156.657 22.0502 156.232 21.5124 155.706 20.9746C154.456 19.6863 154.481 19.5487 156.007 19.6613C156.607 19.7113 157.295 19.7989 157.545 19.8739ZM151.904 20.5618C151.904 20.6744 151.717 21.0871 151.479 21.4749C151.254 21.8626 150.629 22.9883 150.091 23.9889C149.553 24.9895 148.74 26.3653 148.277 27.0532C147.164 28.7167 146.314 30.1925 144.775 33.1193C144.062 34.4576 142.987 36.4462 142.361 37.5469C141.748 38.635 141.023 40.0233 140.773 40.6362C140.235 41.8744 139.685 42.825 138.834 43.9382C138.522 44.3509 137.821 45.5891 137.283 46.6898C135.733 49.8166 134.594 51.5927 132.393 54.3193C131.643 55.2449 130.555 56.8583 129.667 58.3967C129.379 58.9095 128.879 59.685 128.566 60.1352C128.253 60.5855 127.778 61.361 127.503 61.8738C127.228 62.3866 126.727 63.1495 126.402 63.5623C125.577 64.6004 125.464 64.863 125.014 66.6516C124.301 69.4658 123.663 70.7665 122.2 72.3925C121.099 73.6182 120.524 74.5938 118.823 78.0584C117.972 79.7844 116.872 81.8231 116.384 82.586C115.896 83.3365 115.333 84.2745 115.133 84.6623C114.858 85.2001 114.671 85.4002 114.358 85.5128C113.632 85.7879 113.145 86.0506 113.082 86.2257C113.045 86.3382 113.107 86.4008 113.257 86.4008C113.557 86.4008 114.333 87.0762 114.583 87.5515C115.008 88.377 114.608 88.4395 111.944 87.9642C109.63 87.5515 108.955 87.3639 108.229 86.9136C107.379 86.3883 106.616 86.1882 104.59 85.963C100.062 85.4752 99.8621 85.4252 96.7478 84.3996C95.1344 83.8618 92.9956 83.1864 91.9951 82.8987C90.9945 82.611 89.7563 82.2358 89.2435 82.0607C88.6807 81.8731 87.7927 81.698 87.0297 81.6355C84.003 81.3728 80.9263 80.6099 78.9877 79.6468C77.3742 78.8338 72.2213 76.8827 70.9831 76.6075C70.5328 76.5074 69.9075 76.3198 69.5948 76.1947L69.0195 75.9696L68.269 76.3073C67.8563 76.4949 67.4061 76.645 67.2685 76.645C66.9308 76.645 66.5556 76.9327 65.2423 78.1959C64.4794 78.9339 64.0416 79.2716 64.0041 79.159C63.9791 79.0715 64.2543 78.3961 64.617 77.6581C65.2673 76.3824 65.3174 76.3198 65.9802 75.9946C67.0183 75.4818 69.032 75.1191 70.5453 75.1691C71.7335 75.2067 71.8336 75.2317 72.5465 75.6694C73.3219 76.1447 74.6602 76.6075 76.4612 77.0327C77.0365 77.1578 78.2372 77.5831 79.1127 77.9583C80.0007 78.346 81.4391 78.8838 82.3271 79.159C83.2026 79.4342 84.6034 79.8719 85.4288 80.1471C86.2543 80.4097 87.2174 80.6599 87.555 80.7099C87.9052 80.7599 88.4431 80.91 88.7682 81.0351C89.4061 81.2853 90.8444 81.5479 92.808 81.773C94.2589 81.9356 95.9598 82.3484 97.5608 82.8987C98.1861 83.1238 99.1742 83.399 99.7745 83.5366C100.375 83.6742 101.3 83.9493 101.838 84.162C102.363 84.3746 103.389 84.6748 104.114 84.8499C106.141 85.3126 106.478 85.4127 107.692 85.8755C109.08 86.4133 111.181 87.0262 111.606 87.0262C111.956 87.0262 112.382 86.701 112.382 86.4383C112.382 86.2007 111.956 86.0631 110.731 85.9005C109.317 85.7129 108.404 85.4627 106.991 84.8999C106.328 84.6372 105.34 84.3246 104.777 84.2245C103.639 84.0119 102.526 83.6492 102.101 83.349C101.826 83.1489 101.826 83.1489 102.376 83.1489C103.727 83.1489 105.178 83.424 105.828 83.7867C106.591 84.2245 106.916 84.237 107.566 83.8868C107.842 83.7367 108.267 83.5241 108.505 83.399C108.742 83.2739 109.58 83.0613 110.356 82.9237C111.144 82.7736 111.906 82.5735 112.069 82.4735C112.444 82.2233 113.757 80.2346 114.733 78.4461C115.146 77.6956 116.572 75.4443 117.91 73.4431C119.248 71.4544 120.674 69.2656 121.074 68.5777C121.474 67.8898 122.462 66.3139 123.263 65.0757C124.063 63.8374 124.889 62.5367 125.076 62.199C125.464 61.5111 128.116 57.6088 128.941 56.5081C129.642 55.5826 129.842 55.2574 129.942 54.8571C129.979 54.657 130.392 53.9566 130.855 53.2937C132.005 51.5927 133.294 49.554 133.919 48.4033C134.207 47.878 134.769 46.9399 135.17 46.3271C135.57 45.7267 135.895 45.1264 135.895 45.0138C135.895 44.9012 136.12 44.526 136.408 44.1883C136.971 43.5129 137.333 42.8375 138.196 40.8864C138.559 40.0609 138.984 39.3479 139.422 38.8351C141.186 36.7589 144.287 32.0686 145.501 29.6547C145.788 29.0919 146.314 28.1413 146.664 27.5535C147.014 26.9531 147.439 26.1526 147.614 25.7649C148.065 24.7518 149.841 22.2003 150.779 21.2122C151.592 20.3617 151.904 20.1866 151.904 20.5618ZM153.405 22.3129C153.405 22.5505 152.505 24.9769 151.066 28.6166C149.953 31.4558 149.128 33.1443 148.527 33.8697C148.177 34.2825 148.165 34.295 148.152 34.0073C148.152 33.8447 148.54 32.8316 149.015 31.756C149.49 30.6803 150.028 29.3796 150.203 28.8667C150.391 28.3539 150.729 27.591 150.954 27.1782C151.191 26.7655 151.667 25.6523 152.029 24.6893C152.692 22.9257 153.092 22.1128 153.293 22.1128C153.355 22.1128 153.405 22.2003 153.405 22.3129ZM128.328 63.2246C128.278 63.3496 128.078 63.8875 127.891 64.4128C127.528 65.4259 127.228 65.9387 126.59 66.6016C125.827 67.4396 125.827 67.0393 126.59 65.4134C126.915 64.7505 127.39 63.9375 127.665 63.5998C128.166 63.0119 128.503 62.8243 128.328 63.2246ZM14.8886 70.0286C15.8641 70.2913 16.1268 70.3038 25.7073 70.4163C32.6487 70.5039 36.651 70.4914 39.34 70.3913C46.8068 70.1162 49.796 70.0286 51.0342 70.0286L52.2849 70.0161L53.348 70.8791C53.9359 71.3544 54.7238 72.0548 55.099 72.43C55.912 73.243 56.5123 73.6557 58.0757 74.4562C59.6891 75.2817 60.6022 76.4324 60.6022 77.6456C60.6022 78.321 60.3145 78.3085 59.4515 77.5706C58.6636 76.8952 57.5004 76.1197 56.2872 75.4693C55.8119 75.2067 54.8739 74.6063 54.2235 74.1435C52.8853 73.193 52.385 72.9178 51.2343 72.5301C49.0706 71.7921 46.8443 71.6295 42.9046 71.9422C41.4663 72.0548 39.29 72.2049 38.0893 72.2674C36.8886 72.3425 35.4003 72.4801 34.7749 72.5801C34.1621 72.6802 32.3861 72.8178 30.8352 72.8928C27.2206 73.0554 26.1575 73.1179 24.0188 73.3306C20.1041 73.7308 9.48551 73.9809 9.19785 73.6808C8.98522 73.4806 9.14782 72.9053 9.6481 72.1298C9.94827 71.6546 10.0608 71.3669 10.0108 71.1668C9.96078 70.9416 10.0358 70.7916 10.336 70.5414C10.5611 70.3538 11.0239 69.916 11.3741 69.5658L12.012 68.9405L12.95 69.3407C13.4628 69.5658 14.3383 69.8785 14.8886 70.0286ZM70.8455 72.5051C72.3464 73.0054 74.4851 74.031 75.4106 74.6939C76.6238 75.5569 77.3617 75.7945 80.8887 76.4949C82.4771 76.8201 82.9024 76.9577 84.1281 77.5706C85.1787 78.0834 85.9917 78.3835 87.2424 78.6962C88.1679 78.9339 89.3811 79.3216 89.9314 79.5592C90.4817 79.7969 91.2697 80.0971 91.6824 80.2096C93.2833 80.6724 93.4334 80.7349 93.4334 80.91C93.4334 81.0476 93.2083 81.0851 92.3078 81.0601C91.4072 81.0476 90.8444 80.9476 89.4311 80.5348C88.4681 80.2471 87.6051 80.022 87.5175 80.022C87.43 80.022 86.9172 79.8219 86.4044 79.5843C85.8791 79.3341 85.0536 79.084 84.5658 79.0089C82.8524 78.7463 80.0633 77.7582 79.3003 77.1453C78.7375 76.695 78.2497 76.545 76.924 76.3949C75.2355 76.2198 73.6221 75.5569 72.0462 74.4062C71.5709 74.056 71.1082 73.7683 71.0331 73.7683C70.9456 73.7683 70.2202 73.9434 69.4072 74.156C68.5817 74.3687 67.5061 74.6188 67.0183 74.7189C65.4674 75.0065 65.0047 75.3943 64.2918 76.9577C63.8165 77.9833 63.4288 78.5211 63.1536 78.5211C62.916 78.5211 62.6784 77.6206 62.7784 77.0828C62.8535 76.7326 62.9535 76.595 63.2287 76.4699C63.4538 76.3824 63.7915 76.0196 64.0792 75.5694C64.6545 74.6688 65.4549 73.9559 66.7182 73.193C68.6067 72.0423 69.1696 71.9422 70.8455 72.5051ZM121.474 75.732C121.299 76.0572 121.012 76.4699 120.837 76.6325C120.536 76.9202 120.511 76.9202 120.511 76.695C120.511 76.3573 121.099 75.1441 121.424 74.7939L121.7 74.4937L121.737 74.8064C121.762 74.9815 121.637 75.3943 121.474 75.732ZM70.02 77.2704C70.5328 77.4705 71.3083 77.7207 71.746 77.8332C73.3845 78.2084 77.3742 79.6593 78.8626 80.3972C79.4254 80.6849 80.401 81.0101 81.2389 81.2102C82.0269 81.3978 83.2151 81.698 83.8654 81.8606C84.5533 82.0482 85.6289 82.2108 86.4294 82.2608C87.4175 82.3234 87.9678 82.4234 88.4055 82.6236C88.7307 82.7611 88.9934 82.9362 88.9934 82.9863C88.9934 83.4615 88.0303 83.5241 87.1048 83.1364C86.7671 82.9863 86.4419 82.8987 86.4044 82.9487C86.3544 82.9863 86.4419 83.1989 86.6045 83.399L86.8797 83.7742H86.4044C85.679 83.7742 85.0411 83.5616 83.6028 82.8362C82.7898 82.4234 81.9769 82.1107 81.5016 82.0357C81.0889 81.9607 80.3885 81.8356 79.9632 81.7605C79.5255 81.6855 78.2622 81.3228 77.1366 80.9476C76.011 80.5723 74.9979 80.2722 74.8728 80.2722C74.6602 80.2722 74.285 80.0845 73.2219 79.4717C72.8216 79.2466 72.3214 79.109 71.6335 79.0214C71.0831 78.9464 70.3077 78.7838 69.9075 78.6462C68.8819 78.296 68.0939 78.321 66.9433 78.7713C65.9677 79.1465 65.3549 79.2466 65.3549 79.0339C65.3549 78.8338 66.518 77.8707 67.0433 77.6456C67.8938 77.2704 68.7818 76.9202 68.9444 76.9077C69.0195 76.8952 69.5072 77.0578 70.02 77.2704ZM49.3207 78.4836C49.1957 78.5086 48.9955 78.5086 48.883 78.4836C48.7579 78.4461 48.858 78.4211 49.0956 78.4211C49.3332 78.4211 49.4333 78.4461 49.3207 78.4836ZM69.4572 79.2591C69.92 79.4592 70.6954 79.6843 71.1832 79.7468C71.7585 79.8219 72.3714 80.022 72.9467 80.3222C73.4345 80.5598 74.4601 80.9351 75.2105 81.1477C77.2492 81.7105 78.7375 82.3609 78.7375 82.6736C78.7375 82.8612 78.0621 82.7486 75.1104 82.0982C73.6971 81.7856 71.8711 81.2978 71.0456 81.0226C69.7574 80.5723 69.3321 80.4848 67.9939 80.3972C66.8557 80.3222 66.393 80.2346 66.2554 80.0971C66.0678 79.9094 66.0678 79.8844 66.2429 79.6968C66.4805 79.4592 67.9313 78.9089 68.3316 78.9089C68.4942 78.8963 69.007 79.0589 69.4572 79.2591ZM119.636 79.2591C119.636 79.3216 119.548 79.4342 119.448 79.5217C119.248 79.6968 119.223 79.6468 119.336 79.3466C119.411 79.134 119.636 79.0715 119.636 79.2591ZM118.173 81.7105C118.135 81.8106 118.06 81.8981 117.997 81.8981C117.872 81.8981 117.847 81.5979 117.96 81.4854C118.097 81.3478 118.26 81.5229 118.173 81.7105ZM53.0979 82.0607C53.4731 82.2483 53.7608 82.7861 53.6482 83.0863C53.5356 83.374 52.8853 83.2614 52.1473 82.8362C51.6095 82.5235 51.4219 82.1107 51.7596 81.9857C52.0473 81.8606 52.7852 81.8981 53.0979 82.0607ZM117.835 82.6236C117.635 82.9988 117.259 83.374 117.259 83.1989C117.259 83.1364 117.372 82.8987 117.51 82.6736C117.81 82.1733 118.085 82.1358 117.835 82.6236ZM82.8649 83.3865C83.978 83.9243 84.766 84.1995 85.6164 84.3746C86.9422 84.6498 88.1554 85.1125 88.0428 85.3001C87.8802 85.5628 86.1042 85.3377 85.1787 84.9249C84.7034 84.7248 84.0781 84.5122 83.8029 84.4621C82.6522 84.2745 80.7387 83.5241 80.2008 83.0488C79.9132 82.7987 80.1258 82.6486 80.8012 82.6486C81.1389 82.6486 81.7642 82.8737 82.8649 83.3865ZM89.7563 83.8493C91.1321 84.262 91.7449 84.7623 91.1196 84.9624C90.3441 85.2126 87.7802 84.212 88.0553 83.7617C88.1679 83.5866 89.0059 83.6241 89.7563 83.8493ZM67.4811 84.9374C67.4811 85.1125 67.231 85.4002 67.0809 85.4002C66.9558 85.4002 66.9433 84.9749 67.0684 84.8624C67.2059 84.7123 67.4811 84.7623 67.4811 84.9374ZM116.509 85.3877C116.509 85.6253 115.984 86.726 115.684 87.1137C115.283 87.639 115.008 87.6515 115.008 87.1637C115.008 86.6759 116.046 85.2751 116.409 85.2751C116.459 85.2751 116.509 85.3251 116.509 85.3877ZM95.1719 86.1006C97.0855 86.9136 97.8109 87.1637 98.8365 87.4014C99.4368 87.5515 100.362 87.7891 100.875 87.9517C101.388 88.1143 102.551 88.3394 103.439 88.452C105.39 88.7021 105.953 88.8397 106.941 89.29C108.292 89.8904 111.031 90.8784 112.682 91.3412C113.557 91.5914 114.408 91.879 114.558 91.9666C114.733 92.0917 115.096 92.1417 115.584 92.1167C116.271 92.0917 116.409 92.1292 117.084 92.5794C118.085 93.2423 119.386 94.2804 119.386 94.418C119.386 94.5931 119.123 94.5556 117.847 94.1554C117.184 93.9553 115.759 93.5675 114.683 93.2799C112.857 92.8046 111.631 92.3293 111.444 92.0291C111.244 91.7039 110.293 91.4037 108.655 91.1536C106.491 90.8284 105.69 90.6158 105.128 90.1655C104.44 89.6277 104.452 89.6277 102.714 89.5276C101.601 89.4526 100.65 89.3025 99.812 89.0774C99.1241 88.9023 98.2862 88.6896 97.9485 88.6271C97.5983 88.5646 96.5477 88.2019 95.5846 87.8266C94.6341 87.4389 93.3584 87.0136 92.7705 86.8761C90.8819 86.4258 90.3066 86.2257 90.3066 86.0256C90.3066 85.8755 90.5317 85.8254 91.3072 85.7629C93.0082 85.6253 94.3089 85.7379 95.1719 86.1006ZM104.177 90.103C104.29 90.1405 104.377 90.228 104.377 90.2906C104.377 90.4657 104.077 90.4282 103.802 90.2155C103.602 90.0655 103.589 90.0404 103.777 90.0279C103.889 90.0279 104.064 90.0655 104.177 90.103Z"/>
<path d="M132.843 68.2401C132.018 69.5659 129.129 75.682 127.815 78.8964C127.39 79.9595 126.715 81.5104 126.327 82.3359C125.539 83.9869 124.639 86.0006 124.639 86.0881C124.639 86.1257 124.739 86.1507 124.864 86.1507C125.189 86.1507 125.452 85.8255 125.752 85.0625C125.889 84.7123 126.315 83.8118 126.677 83.0613C127.053 82.3234 127.653 80.9476 128.003 80.022C128.366 79.0965 128.866 77.8207 129.104 77.2079C129.354 76.5825 130.304 74.5063 131.23 72.5801C133.156 68.5653 133.431 67.9274 133.269 67.8273C133.206 67.7898 133.018 67.9774 132.843 68.2401Z"/>
<path d="M67.9188 81.7731C67.8688 81.8481 68.0064 81.8981 68.219 81.8981C68.4316 81.8981 68.6067 81.8356 68.6067 81.7731C68.6067 81.698 68.4691 81.648 68.3065 81.648C68.1314 81.648 67.9564 81.698 67.9188 81.7731Z"/>
<path d="M95.7472 13.295C95.7472 13.4201 95.8346 13.4827 95.972 13.4576C96.2342 13.4076 96.2092 13.1825 95.947 13.1324C95.8221 13.1074 95.7472 13.17 95.7472 13.295Z"/>
<path d="M94.5215 16.0467C94.3464 16.4344 94.3214 17.1848 94.484 17.2849C94.6841 17.41 94.9092 16.9847 94.9718 16.3594C95.0218 15.8716 94.9843 15.734 94.8467 15.734C94.7466 15.734 94.5966 15.8716 94.5215 16.0467Z"/>
<path d="M92.9831 18.9484C92.8456 19.3111 92.9331 20.1116 93.1082 20.1116C93.3959 20.1116 93.6835 19.2736 93.5585 18.8483C93.4459 18.4981 93.1332 18.5607 92.9831 18.9484Z"/>
<path d="M91.032 22.6005C91.1446 23.9889 91.6199 24.5642 91.6199 23.326C91.6199 22.4505 91.4072 21.7375 91.1571 21.7375C90.982 21.7375 90.9695 21.8626 91.032 22.6005Z"/>
<path d="M89.256 25.5273C89.2936 26.1902 89.3686 26.6655 89.4687 26.7655C89.7188 27.0157 89.8689 26.678 89.8689 25.865C89.8689 25.1521 89.6813 24.6143 89.3811 24.5142C89.256 24.4642 89.231 24.6643 89.256 25.5273Z"/>
<path d="M87.2424 27.4409C86.9548 28.1789 87.2174 29.242 87.6927 29.242C87.8302 29.242 87.8678 29.0544 87.8678 28.4165C87.8678 27.2533 87.5176 26.703 87.2424 27.4409Z"/>
<path d="M85.0411 31.1681C84.9285 31.4683 85.2287 31.8685 85.5664 31.8685C86.0041 31.8685 86.1042 31.5058 85.754 31.2181C85.4038 30.943 85.1287 30.9305 85.0411 31.1681Z"/>
<path d="M83.7029 33.6946C83.5403 33.8572 83.6153 34.4701 83.7904 34.5326C84.0405 34.6327 84.2657 34.32 84.2156 33.9698C84.1781 33.6946 83.878 33.532 83.7029 33.6946Z"/>
<path d="M82.1645 36.4212C82.0394 36.7464 82.3521 37.1216 82.7273 37.1216C82.9149 37.1216 83.1025 37.0841 83.1525 37.0466C83.2901 36.909 83.09 36.6088 82.7273 36.4337C82.2896 36.2086 82.252 36.1961 82.1645 36.4212Z"/>
<path d="M80.7387 39.1604C80.7387 39.5231 80.9638 39.7482 81.3265 39.7482C81.7017 39.7482 81.7142 39.3355 81.339 39.0728C80.9388 38.7976 80.7387 38.8227 80.7387 39.1604Z"/>
<path d="M79.4504 41.2116C79.2753 41.3867 79.3754 41.9745 79.6255 42.1997C79.8757 42.4248 79.8882 42.4248 80.0633 42.1871C80.2884 41.8745 80.2884 41.8494 79.9757 41.4492C79.7131 41.1115 79.588 41.0615 79.4504 41.2116Z"/>
<path d="M77.3992 44.3384C77.3492 44.476 77.4618 44.6761 77.7744 44.9638C78.0246 45.1889 78.2872 45.3765 78.3623 45.3765C78.5999 45.3765 78.4873 44.9012 78.1622 44.5135C77.7995 44.0883 77.5243 44.0132 77.3992 44.3384Z"/>
<path d="M76.036 46.3146C75.9234 46.5898 76.2236 47.3652 76.4862 47.5028C76.7864 47.6654 76.8865 47.5028 76.7489 47.04C76.5112 46.227 76.1861 45.9019 76.036 46.3146Z"/>
<path d="M74.5601 48.5659C74.3475 49.1412 74.6602 50.0168 75.0104 49.8041C75.1855 49.6916 75.0479 48.766 74.8228 48.5409C74.6727 48.3783 74.6352 48.3908 74.5601 48.5659Z"/>
<path d="M73.1093 51.1675C73.1093 51.5177 73.3219 51.7553 73.6346 51.7553C73.9723 51.7553 74.0473 51.4176 73.7972 51.1299C73.4845 50.7797 73.1093 50.8047 73.1093 51.1675Z"/>
<path d="M70.6829 55.495C70.5829 55.6576 71.1457 56.4331 71.3958 56.4831C71.6585 56.5331 71.671 56.2455 71.4209 55.7577C71.2332 55.395 70.833 55.2574 70.6829 55.495Z"/>
<path d="M69.5323 57.4212C69.4948 57.5212 69.4823 57.8714 69.5073 58.2091C69.5448 58.797 69.5573 58.822 69.9575 58.8595C70.2952 58.897 70.3578 58.8595 70.3578 58.6344C70.3578 58.3467 69.9325 57.4462 69.7324 57.3211C69.6574 57.2836 69.5698 57.3211 69.5323 57.4212Z"/>
<path d="M68.2816 59.4349C68.0565 60.0102 68.6193 61.0108 69.057 60.8357C69.2947 60.7481 69.2196 60.2979 68.8819 59.71C68.6318 59.2723 68.3816 59.1597 68.2816 59.4349Z"/>
<path d="M67.1059 61.7612C67.1059 62.274 67.306 62.6367 67.5937 62.6367C67.9439 62.6367 68.0189 62.274 67.7563 61.8362C67.4311 61.2859 67.1059 61.2484 67.1059 61.7612Z"/>
<path d="M65.9302 63.7874C66.0803 64.2752 66.3805 64.6379 66.6181 64.6379C66.8933 64.6379 66.9058 64.5379 66.7182 64.0501C66.5681 63.6624 66.393 63.5123 66.0678 63.5123C65.8927 63.5123 65.8552 63.5748 65.9302 63.7874Z"/>
<path d="M64.5419 65.501C64.4419 65.6761 64.692 66.6642 64.8671 66.7767C65.1423 66.9393 65.3549 66.7517 65.3549 66.3139C65.3549 65.7386 64.767 65.1507 64.5419 65.501Z"/>
<path d="M63.6539 67.6897C63.6164 67.8648 63.6164 68.0649 63.6664 68.1275C63.754 68.2775 64.2668 68.3151 64.3918 68.19C64.5044 68.0649 64.2543 67.6647 63.9791 67.5146C63.7665 67.402 63.729 67.427 63.6539 67.6897Z"/>
<path d="M62.2656 68.9529C62.2281 69.0655 62.2531 69.3657 62.3282 69.6283C62.6158 70.5664 63.6164 71.0291 63.4288 70.1286C63.2787 69.3657 62.4407 68.5152 62.2656 68.9529Z"/>
<path d="M60.9774 71.3544C60.9774 71.6796 61.8654 72.5176 62.2031 72.5176C62.6283 72.5176 62.5533 72.0798 62.0655 71.7921C61.8279 71.6546 61.4902 71.4544 61.3151 71.3294C60.9899 71.1167 60.9774 71.1167 60.9774 71.3544Z"/>
<path d="M59.4265 72.355C59.364 72.4926 59.5516 72.7552 60.0269 73.218C60.6897 73.8684 61.4777 74.3812 61.4777 74.1685C61.4777 73.9809 59.8392 72.1424 59.6641 72.1424C59.5766 72.1424 59.464 72.2299 59.4265 72.355Z"/>
</svg>
